<?xml version="1.0" standalone="no"?>
<!DOCTYPE svg PUBLIC "-//W3C//DTD SVG 20010904//EN"
 "http://www.w3.org/TR/2001/REC-SVG-20010904/DTD/svg10.dtd">
<svg version="1.0" xmlns="http://www.w3.org/2000/svg"
 width="260.000000pt" height="260.000000pt" viewBox="0 0 260.000000 260.000000"
 preserveAspectRatio="xMidYMid meet">
<metadata>
Created by potrace 1.11, written by Peter Selinger 2001-2013
</metadata>
<g transform="translate(0.000000,260.000000) scale(0.100000,-0.100000)"
fill="#000000" stroke="none">
<path d="M43 1500 l42 -69 55 -2 c30 0 90 0 133 0 l77 2 0 -220 0 -221 97 3
98 2 0 215 0 215 145 2 c144 3 144 3 167 30 12 16 22 32 23 36 0 5 12 24 26
43 l26 34 -466 0 -466 0 43 -70z"/>
<path d="M992 1497 c-24 -39 -67 -110 -95 -157 -29 -47 -73 -119 -98 -160 -26
-41 -83 -135 -128 -208 -44 -73 -81 -136 -81 -140 0 -4 44 -7 97 -7 l97 0 181
297 c99 164 182 298 186 298 6 0 115 -167 124 -191 5 -13 -5 -15 -59 -14 -36
1 -70 -1 -75 -4 -7 -5 -61 -126 -61 -138 0 -3 21 -4 48 -3 26 1 88 1 138 1
l91 -1 27 -39 27 -38 94 -1 c52 0 95 2 95 5 0 3 -55 99 -122 214 -161 273
-164 278 -188 322 l-20 37 -118 0 -117 0 -43 -73z"/>
<path d="M1398 1538 c25 -41 226 -378 282 -474 l42 -72 99 0 99 0 36 60 c41
67 36 68 86 -16 l28 -47 96 3 97 3 167 285 168 285 -95 3 c-89 3 -123 -5 -123
-28 0 -3 -37 -72 -82 -151 -46 -79 -92 -161 -103 -182 -11 -20 -22 -37 -25
-37 -3 0 -58 90 -124 200 l-118 200 -104 0 -105 0 34 -52 c19 -29 59 -91 89
-138 l56 -85 -31 -57 c-18 -32 -35 -58 -39 -58 -5 0 -34 46 -202 323 l-41 67
-103 0 -104 0 20 -32z"/>
</g>
</svg>
